# xmcd CD database file
#
# Track frame offsets:
#	150
#	5100
#	21090
#	40545
#	59985
#	80415
#	101235
#	122535
#	158205
#	173160
#	195705
#	228135
#	248595
#	274965
#	302012
#	327662
#
# Disc length: 4608 seconds
#
# Revision: 0
# Processed by: cddbd v1.5.1PL0 Copyright (c) Steve Scherf et al.
# Submitted via: CDex 1.51
#
DISCID=d811fe10
DTITLE=B'z - B'z Typhoon No.15 and BANZAI
DYEAR=2004
DGENRE=JPop
TTITLE0=COUNT DOWN
TTITLE1=アラクレ
TTITLE2=Pleasure 2003 〜人生の快楽〜
TTITLE3=BLOWIN'
TTITLE4=OH! GIRL
TTITLE5=Wonderful Opportunity
TTITLE6=野生のENERGY
TTITLE7=TIME
TTITLE8=Wake up, right now
TTITLE9=太陽のKomachi Angel
TTITLE10=GIMME YOUR LOVE 〜不屈のLOVE DRIVER〜
TTITLE11=今夜月の見える丘に
TTITLE12=Brotherhood
TTITLE13=Easy Come, Easy Go!
TTITLE14=月光
TTITLE15=恋心(KOI-GOKORO)
EXTD=YEAR: 2004
EXTT0=
EXTT1=
EXTT2=
EXTT3=
EXTT4=
EXTT5=
EXTT6=
EXTT7=
EXTT8=
EXTT9=
EXTT10=
EXTT11=
EXTT12=
EXTT13=
EXTT14=
EXTT15=
PLAYORDER=
